<svg xmlns="http://www.w3.org/2000/svg" xmlns:xlink="http://www.w3.org/1999/xlink" width="181" height="39" viewBox="0 0 272.334 58.839"><path fill="#FFF" d="M112.763 11.515H97.271v44.513h-9.915V11.515H71.935V2.978h40.828z"/><defs><path id="a" d="M0 0h272.334v58.839H0z"/></defs><clipPath id="b"><use xlink:href="#a" overflow="visible"/></clipPath><path clip-path="url(#b)" fill="#FFF" d="M119.297 39.505c1.033 4.888 4.957 8.33 10.672 8.33 3.924 0 7.573-1.788 9.638-4.612l6.127 5.094c-3.441 4.684-9.569 7.713-16.866 7.713-11.292 0-19.14-8.607-19.14-19.277 0-10.741 7.848-19.346 19.14-19.346 11.498 0 18.176 8.33 18.176 19.964 0 .757-.068 1.516-.068 2.135h-27.679zm.069-6.128h18.52c-.344-4.268-2.616-8.33-9.018-8.33-5.026 0-8.607 3.718-9.502 8.33M153.992 2.978h9.641v53.051h-9.641zM171.961 8.622c0-3.098 2.479-5.644 5.509-5.644 3.029 0 5.438 2.546 5.438 5.644 0 3.099-2.409 5.577-5.438 5.577-3.031 0-5.509-2.478-5.509-5.577m.757 9.639h9.571v37.384h-9.571V18.261zM228.759 18.093v37.972h-9.569v-3.342a19.573 19.573 0 0 1-10.948 3.305c-11.704 0-18.588-9.432-18.588-19.346 0-9.984 6.884-19.346 18.588-19.346 3.926 0 7.781 1.239 10.948 3.099v-2.342h9.569zm-9.57 11.155c-2.342-1.998-5.647-3.236-9.226-3.236-6.816 0-11.085 5.093-11.085 10.671 0 5.645 4.338 10.739 11.085 10.739 3.647 0 6.884-1.17 9.226-3.165V29.248zM244.521 56.029h-10.328l13.701-19.139-13.563-18.245h10.739l8.194 10.946 8.193-10.946h10.741L258.633 36.89l13.701 19.139h-10.396l-8.674-11.016z"/><path clip-path="url(#b)" fill="#42A7C5" d="M36.018 31.188l16.02-16.021a.512.512 0 0 1 .727 0l5.925 5.925a.514.514 0 0 1 0 .724L44.302 36.201c-.2.201-.2.526 0 .727l14.745 14.743a.517.517 0 0 1 0 .727l-6.286 6.287a.515.515 0 0 1-.725 0L37.29 43.94a.509.509 0 0 0-.726 0L21.816 58.689a.514.514 0 0 1-.724 0l-5.926-5.924a.518.518 0 0 1 0-.728l16.491-16.49M.902 34.146a3.078 3.078 0 0 0 0 4.353l6.409 6.406a.511.511 0 0 0 .725 0l7.495-7.493c.2-.201.2-.524 0-.727l-2.344-2.342a.516.516 0 0 1-.001-.727L34.753 11.9a.513.513 0 0 1 .725 0l2.418 2.419a.51.51 0 0 0 .724 0l6.288-6.287c.2-.202.2-.524 0-.726L38.5.903a3.075 3.075 0 0 0-4.353 0L.902 34.146z"/></svg>