<?xml version="1.0" encoding="utf-8"?>
<svg viewBox="0 0 500 500" xmlns="http://www.w3.org/2000/svg">
  <clipPath id="b">
    <path d="M -0.006 0 L 2300.272 0 L 2300.272 500.007 L -0.006 500.007 Z" overflow="visible"/>
  </clipPath>
  <path clip-path="url(#b)" fill="#42A7C5" d="M 304.224 265.027 L 439.537 128.881 C 441.226 127.173 443.979 127.173 445.677 128.881 L 495.723 179.231 C 497.396 180.94 497.396 183.684 495.723 185.384 L 374.194 307.629 C 372.506 309.336 372.506 312.098 374.194 313.807 L 498.739 439.092 C 500.42 440.81 500.42 443.563 498.739 445.27 L 445.643 498.697 C 443.946 500.388 441.209 500.388 439.521 498.697 L 314.968 373.395 C 313.278 371.678 310.517 371.678 308.836 373.395 L 184.266 498.732 C 182.568 500.423 179.839 500.423 178.151 498.732 L 128.096 448.388 C 126.407 446.681 126.407 443.919 128.096 442.203 L 267.388 302.071 M 7.615 290.165 C -2.539 300.388 -2.539 316.942 7.615 327.158 L 61.749 381.595 C 63.437 383.311 66.183 383.311 67.871 381.595 L 131.18 317.919 C 132.868 316.212 132.868 313.466 131.18 311.742 L 111.38 291.839 C 109.692 290.139 109.683 287.377 111.373 285.661 L 293.538 101.117 C 295.228 99.419 297.965 99.419 299.663 101.117 L 320.085 121.674 C 321.766 123.383 324.512 123.383 326.2 121.674 L 379.313 68.247 C 381.002 66.531 381.002 63.796 379.313 62.077 L 325.187 7.666 C 315.035 -2.557 298.564 -2.557 288.419 7.666 L 7.615 290.165 Z" style=""/>
</svg>